<?xml version="1.0" standalone="no"?>
<!DOCTYPE svg PUBLIC "-//W3C//DTD SVG 20010904//EN"
 "http://www.w3.org/TR/2001/REC-SVG-20010904/DTD/svg10.dtd">
<svg version="1.0" xmlns="http://www.w3.org/2000/svg"
 width="1280.000000pt" height="1280.000000pt" viewBox="0 0 1280.000000 1280.000000"
 preserveAspectRatio="xMidYMid meet">

<g transform="translate(0.000000,1280.000000) scale(0.100000,-0.100000)"
fill="#ffffff" stroke="none">
<path d="M5810 12514 c-47 -25 -103 -61 -126 -80 -52 -42 -884 -1128 -884
-1153 0 -4 12 -14 28 -23 15 -9 58 -44 96 -77 38 -34 72 -61 75 -61 3 1 188
244 411 541 441 587 428 567 470 761 11 51 22 103 25 116 3 12 2 22 -2 22 -5
0 -46 -21 -93 -46z"/>
<path d="M4305 11284 c-877 -110 -1616 -313 -1963 -537 -179 -116 -341 -334
-527 -712 -123 -250 -151 -336 -197 -601 -20 -113 -23 -164 -23 -409 0 -231 3
-297 18 -379 54 -287 157 -495 332 -672 113 -114 144 -127 319 -132 137 -4
571 7 563 14 -2 2 -30 9 -61 15 -32 6 -132 34 -224 64 l-165 53 -25 47 c-13
27 -30 66 -38 88 l-14 40 67 -7 c38 -4 87 -10 111 -13 25 -3 42 -2 42 4 0 9
-143 33 -198 33 -27 0 -37 33 -28 95 4 25 9 45 10 45 2 0 51 -16 110 -36 59
-20 110 -33 113 -30 10 9 5 11 -103 47 l-102 34 -67 90 c-119 160 -151 250
-180 504 l-6 54 60 -6 c34 -3 61 -2 61 3 0 11 -37 20 -82 20 l-37 0 6 53 c3
28 8 54 10 57 3 3 58 -23 124 -57 70 -37 119 -57 119 -50 0 7 -54 39 -120 72
-138 68 -130 45 -70 215 21 58 52 156 70 218 32 110 34 113 81 148 38 28 61
37 106 41 34 3 75 16 99 29 22 13 46 24 52 24 8 0 12 -26 12 -82 0 -49 4 -78
9 -72 5 5 11 18 13 29 2 11 9 -20 16 -70 6 -49 26 -132 44 -185 l33 -95 6 165
c7 174 29 296 72 389 l21 46 7 -250 c7 -267 20 -363 62 -444 35 -70 44 -63 51
36 3 48 11 116 17 151 6 35 9 85 5 112 -6 46 -5 48 15 43 22 -6 22 -5 15 104
-5 68 -4 113 2 117 5 3 13 -9 17 -27 7 -29 9 -23 21 48 27 164 27 166 3 230
-17 46 -37 75 -88 125 -69 68 -164 124 -200 118 -19 -3 -13 -13 44 -83 36 -44
65 -85 65 -92 0 -30 -36 -7 -135 87 -58 55 -112 100 -120 100 -23 0 -18 15 12
31 43 23 140 16 207 -14 121 -56 179 -123 232 -274 38 -105 45 -182 18 -204
-26 -21 -12 -108 25 -169 18 -29 31 -64 31 -83 0 -17 -14 -110 -30 -206 -47
-276 -41 -283 65 -72 41 82 79 152 84 155 12 8 89 -21 114 -42 23 -20 22 -64
-4 -114 -13 -26 -17 -44 -11 -50 6 -6 -9 -36 -44 -85 -30 -41 -51 -79 -48 -84
3 -6 31 25 61 68 69 97 91 121 125 139 25 13 32 12 70 -7 24 -12 45 -23 47
-25 1 -1 -27 -31 -63 -65 -74 -69 -82 -93 -10 -33 25 21 58 49 73 62 l28 22
137 -64 c147 -70 263 -141 271 -166 21 -68 55 -262 55 -313 l0 -63 -92 -23
c-211 -53 -496 -176 -623 -268 -68 -50 -41 -54 32 -4 140 95 332 179 542 237
68 19 126 32 128 31 5 -6 -23 -79 -56 -144 -30 -60 -32 -62 -78 -68 -82 -11
-265 -54 -348 -81 -123 -40 -269 -113 -254 -128 3 -3 40 13 82 35 122 64 336
127 515 153 l44 7 -33 -58 c-42 -76 -106 -164 -171 -237 l-53 -59 35 6 c51 10
203 86 504 252 450 248 633 329 814 360 106 19 178 19 267 0 153 -33 168 -22
200 135 9 41 39 145 67 231 l52 156 -33 167 c-81 417 -202 889 -296 1165 -111
321 -212 516 -335 641 -87 88 -168 135 -305 174 -99 29 -139 30 -300 10z
m-1753 -1086 c20 -29 68 -90 107 -135 68 -78 75 -82 129 -93 132 -27 153 -32
149 -36 -2 -3 -55 1 -116 8 l-111 12 -64 76 c-117 137 -131 150 -165 150 -17
0 -31 4 -31 9 0 7 58 60 66 61 1 0 17 -24 36 -52z m-76 -56 c5 -4 23 -25 39
-47 16 -22 42 -55 57 -73 42 -49 38 -86 -11 -117 -22 -13 -65 -56 -96 -95 -60
-76 -83 -90 -145 -90 -37 0 -42 -4 -101 -81 -72 -95 -94 -153 -133 -349 -15
-74 -28 -136 -30 -137 -1 -2 -11 3 -21 11 -18 13 -18 16 0 107 26 139 51 212
105 308 83 147 100 173 118 178 13 3 24 25 37 76 35 142 76 257 101 287 25 29
57 38 80 22z m-437 -1002 c16 -8 17 -17 9 -71 -9 -71 -10 -72 -35 -67 -16 3
-17 9 -10 76 5 39 11 72 14 72 2 0 12 -4 22 -10z m-3 -177 c-3 -10 -10 -92
-17 -183 -9 -143 -9 -178 5 -260 20 -112 70 -268 126 -389 22 -47 32 -75 22
-62 -37 47 -122 219 -153 311 -31 90 -33 105 -37 264 -2 93 -1 207 3 253 7 80
8 83 32 83 18 0 23 -4 19 -17z"/>
<path d="M11994 10130 c-77 -39 43 123 -1654 -2213 -498 -686 -907 -1246 -910
-1247 -3 0 -11 9 -18 21 -11 18 -9 24 17 55 54 61 83 132 111 269 14 70 19 80
37 80 33 0 37 12 6 18 l-28 5 8 244 c13 380 15 347 -38 527 -26 89 -46 163
-44 165 2 2 44 -2 92 -8 48 -7 90 -9 93 -5 6 10 -15 16 -92 24 -107 12 -107
11 -138 115 -15 51 -24 96 -19 100 4 4 41 13 81 19 39 7 72 17 72 22 0 12 -1
12 -90 -5 -54 -11 -77 -12 -82 -3 -9 14 -48 172 -48 193 0 10 26 63 59 118
164 282 226 462 238 692 l6 122 -314 -88 c-173 -48 -390 -112 -484 -143 -276
-89 -336 -93 -680 -44 -489 69 -743 34 -1002 -140 -95 -63 -95 -63 -167 -63
-128 0 -197 24 -526 181 -306 145 -432 188 -606 205 -72 6 -227 -9 -254 -26
-30 -18 35 -345 106 -538 47 -126 119 -264 191 -364 56 -77 263 -288 283 -288
19 0 9 -47 -46 -215 -54 -162 -84 -225 -105 -225 -6 0 -61 49 -123 108 -131
125 -245 226 -278 243 -72 38 -723 10 -1063 -47 -241 -40 -664 -162 -925 -266
-131 -53 -164 -58 -226 -34 -71 26 -90 27 -115 5 -35 -30 -63 -40 -310 -109
-123 -35 -230 -66 -238 -70 -9 -5 -55 7 -110 27 -69 25 -112 48 -158 85 -35
28 -63 54 -63 57 0 4 11 23 25 43 l24 36 -137 4 c-132 4 -140 5 -212 40 -41
19 -94 43 -118 53 -61 26 -199 178 -245 272 l-36 71 -178 113 c-265 169 -274
172 -416 177 l-118 5 7 -29 c11 -48 53 -154 76 -196 26 -46 160 -160 440 -373
108 -82 197 -154 197 -158 1 -5 -16 -28 -37 -52 -48 -54 -127 -194 -149 -262
-14 -44 -14 -56 -3 -83 7 -18 26 -40 42 -50 27 -16 28 -18 8 -23 -12 -3 -45
-3 -75 0 -67 7 -95 0 -134 -33 -23 -19 -31 -34 -31 -59 0 -27 -7 -37 -38 -58
-22 -14 -44 -39 -51 -59 -7 -18 -22 -55 -32 -82 -35 -90 -23 -148 48 -227 l36
-39 -202 -267 c-110 -147 -201 -271 -201 -275 0 -8 222 -178 233 -178 4 0 70
84 147 187 155 206 155 208 124 309 -10 28 -14 59 -11 68 6 15 64 56 79 56 4
0 -2 -21 -14 -46 -42 -97 -4 -179 161 -345 103 -103 208 -177 356 -252 114
-56 385 -164 535 -212 348 -110 573 -20 874 353 32 39 60 72 63 72 6 0 -45
-87 -115 -195 -87 -133 -179 -223 -274 -268 -97 -47 -169 -59 -316 -55 -79 2
-121 -1 -118 -7 44 -111 257 -538 280 -563 42 -45 117 -79 204 -93 105 -17
155 -4 258 71 45 33 105 71 132 85 27 14 103 57 168 96 134 80 292 158 504
249 188 80 666 270 682 270 30 1 -20 18 -70 24 -214 27 -441 204 -637 496
-125 187 -289 572 -310 728 -12 87 9 58 39 -55 99 -372 218 -604 406 -794 169
-172 361 -271 605 -313 129 -23 180 -20 407 19 111 19 203 33 205 32 1 -2 -21
-17 -50 -35 -41 -24 -92 -40 -237 -71 -552 -118 -698 -169 -1137 -390 -422
-213 -705 -376 -837 -484 l-30 -24 12 -116 c12 -130 31 -187 60 -187 32 0 158
90 302 214 130 112 142 120 340 219 397 199 954 418 1270 501 184 49 400 70
480 47 l25 -7 -25 -7 c-13 -3 -98 -14 -187 -23 -160 -17 -215 -34 -110 -34 28
0 69 -3 90 -7 34 -5 13 -12 -170 -59 -491 -124 -848 -242 -1190 -394 -343
-153 -661 -360 -765 -496 -78 -103 -246 -348 -295 -429 -33 -56 -83 -115 -163
-195 -64 -63 -126 -129 -138 -147 -50 -71 -127 -295 -327 -948 -179 -585 -263
-822 -335 -951 -16 -29 -26 -55 -23 -58 23 -23 201 13 331 68 70 30 353 92
493 108 l101 12 38 50 c88 118 139 252 266 701 127 447 186 587 321 772 91
124 607 790 679 878 l58 69 14 -34 c8 -19 19 -66 25 -105 14 -94 -6 -206 -77
-443 -94 -309 -99 -343 -93 -652 4 -186 11 -313 26 -424 12 -88 21 -192 21
-232 0 -146 -63 -351 -136 -440 -24 -30 -44 -56 -44 -59 0 -3 24 7 53 22 50
27 59 28 222 31 94 2 199 1 233 -3 61 -7 63 -8 58 -31 -14 -55 -148 -308 -193
-363 -76 -94 -113 -162 -120 -220 -5 -45 -3 -55 17 -76 34 -36 72 -43 290 -50
120 -5 207 -12 226 -20 23 -10 50 -41 100 -117 37 -56 90 -126 116 -154 43
-46 66 -60 146 -91 23 -8 21 -12 -64 -128 -167 -228 -220 -323 -196 -347 19
-19 101 -28 175 -18 122 16 158 13 164 -11 23 -85 107 -169 169 -169 20 0 44
5 54 10 15 8 27 4 56 -15 38 -26 106 -32 164 -16 13 4 50 3 82 -2 31 -5 73 -6
93 -3 48 9 116 72 162 150 19 34 70 111 112 171 98 138 129 192 157 269 25 70
15 67 154 37 168 -36 276 -44 569 -38 299 5 428 21 601 73 133 40 194 77 245
148 24 34 56 73 72 88 100 96 311 108 653 38 192 -40 218 -47 224 -68 13 -46
47 -196 62 -275 10 -48 23 -95 30 -105 14 -19 54 -21 181 -8 l82 9 5 -34 c3
-19 7 -62 10 -96 12 -133 71 -238 177 -314 34 -24 98 -77 143 -116 128 -115
195 -135 297 -92 l49 22 81 -27 c74 -25 82 -25 112 -12 18 9 51 15 74 14 47 0
96 24 124 62 23 30 49 127 49 178 0 109 -112 225 -288 298 -37 15 -79 36 -94
46 -31 21 -131 166 -123 178 3 4 17 11 32 14 43 11 131 73 147 103 13 25 12
34 -11 89 l-26 62 51 48 c28 27 54 62 58 78 11 44 -10 109 -71 226 -131 249
-409 818 -474 972 -84 199 -165 435 -221 648 -22 85 -52 179 -66 209 -13 30
-29 84 -35 121 l-11 67 47 59 c133 163 237 389 334 729 55 191 176 670 187
740 29 182 12 422 -43 600 -34 111 -121 284 -192 382 l-60 83 1336 1837 c735
1010 1346 1860 1359 1888 32 68 33 149 2 195 -47 68 -143 90 -224 50z m133
-70 c22 -10 43 -27 47 -35 18 -49 -4 -114 -62 -177 -21 -24 -167 -223 -323
-443 -424 -596 -1831 -2536 -2645 -3650 -68 -92 -117 -151 -129 -153 -23 -3
-172 114 -167 131 8 27 373 534 1711 2372 1345 1850 1368 1880 1422 1929 58
52 83 57 146 26z m-2531 -779 c-13 -145 -61 -302 -142 -464 -63 -125 -115
-207 -165 -263 -27 -30 -49 -61 -49 -70 0 -9 16 -56 36 -106 20 -49 35 -90 33
-92 -2 -2 -44 -12 -94 -24 l-90 -20 -75 72 c-216 207 -485 262 -1098 225 -363
-21 -682 -129 -856 -290 l-44 -40 -82 15 c-93 18 -180 21 -180 6 0 -5 22 -10
48 -10 45 0 149 -15 180 -25 10 -4 6 -15 -16 -43 -16 -20 -41 -57 -55 -82
l-26 -46 -95 -12 c-99 -12 -146 -25 -146 -41 0 -5 22 -3 51 4 28 8 80 17 116
21 62 6 66 6 59 -12 -23 -59 -92 -361 -105 -457 -40 -290 51 -501 296 -693
103 -81 169 -107 353 -143 58 -11 169 -38 245 -60 585 -165 707 -174 1028 -77
215 66 327 136 489 304 69 73 105 119 134 176 l39 78 69 -6 c39 -4 72 -9 75
-11 11 -11 -24 -124 -61 -196 -53 -102 -90 -139 -174 -174 -38 -15 -103 -43
-144 -62 -145 -67 -411 -154 -571 -188 -119 -25 -205 -35 -308 -36 -86 0 -109
4 -219 40 -126 42 -137 44 -472 76 -516 50 -966 166 -1193 309 -104 64 -141
108 -188 216 -114 263 -109 475 17 861 31 93 54 179 52 191 -2 13 -21 34 -47
52 -71 48 -178 153 -247 245 -75 100 -179 304 -224 441 -31 97 -80 317 -80
364 0 24 3 26 43 26 108 -1 270 -50 802 -245 215 -78 420 -152 458 -165 l68
-22 78 79 c91 91 160 135 273 174 156 53 229 62 457 57 166 -4 247 -12 416
-38 197 -31 215 -32 294 -21 46 7 161 36 255 66 228 72 769 223 780 217 4 -2
5 -39 2 -81z m-1024 -805 c214 -44 386 -112 471 -186 26 -23 47 -45 47 -50 0
-5 -30 -18 -67 -31 -91 -29 -179 -74 -232 -117 -62 -51 -124 -152 -92 -152 5
0 11 10 15 23 9 36 75 107 138 148 57 37 212 99 246 99 12 0 28 -20 45 -55 15
-31 27 -58 27 -60 0 -3 -13 -5 -28 -5 -77 0 -216 -50 -287 -103 -42 -32 -5
-26 51 8 71 43 150 68 223 69 l54 1 29 -90 c31 -95 58 -250 58 -325 0 -25 7
-91 17 -148 20 -119 21 -116 -63 -126 -64 -7 -209 -52 -344 -106 -154 -62
-171 -70 -165 -79 2 -5 53 11 112 36 162 67 293 110 384 128 45 8 86 15 92 15
12 0 4 -161 -10 -198 -9 -23 -11 -23 -193 -26 -146 -3 -202 -8 -265 -24 -95
-24 -175 -57 -175 -72 0 -13 0 -14 61 14 94 41 193 58 365 64 90 2 169 0 178
-5 14 -8 14 -14 -10 -61 -30 -60 -198 -249 -287 -322 -105 -85 -248 -143 -459
-186 -149 -30 -309 -7 -713 104 -121 33 -275 72 -343 87 -203 44 -259 67 -364
151 -111 89 -200 234 -234 380 -18 77 -20 218 -4 304 13 73 102 339 128 383
17 30 21 32 68 29 113 -7 311 -50 434 -93 63 -22 60 -22 60 -10 0 29 -371 121
-487 121 -24 0 -43 5 -43 11 0 13 73 121 94 138 13 11 31 8 108 -15 129 -38
283 -96 394 -148 61 -29 94 -40 94 -32 0 22 -307 149 -475 197 -44 12 -82 24
-84 26 -8 6 44 56 99 93 197 134 425 191 890 220 183 11 297 5 442 -24z m774
-253 c8 -21 24 -59 35 -85 l19 -48 -90 0 -89 0 -37 57 c-20 31 -38 62 -40 68
-3 8 20 18 63 28 109 24 120 23 139 -20z m82 -206 c31 -81 79 -254 93 -329 10
-52 10 -76 1 -106 -7 -22 -12 -66 -12 -100 l0 -60 -36 -7 c-20 -3 -37 -5 -38
-3 -1 2 -8 38 -15 80 -18 111 -106 377 -188 566 -4 9 17 12 85 12 l91 0 19
-53z m-7394 -258 c31 -15 46 -55 39 -108 l-6 -41 -23 25 c-40 43 -44 27 -8
-32 42 -70 42 -88 4 -108 -44 -23 -54 -19 -94 30 -35 42 -56 56 -56 36 0 -4
14 -26 30 -47 58 -71 29 -146 -62 -161 -33 -5 -41 -2 -72 29 l-34 34 1 -40 2
-41 -48 -3 c-64 -4 -97 17 -97 61 0 34 77 188 124 250 40 53 181 121 258 126
9 1 28 -4 42 -10z m596 -286 c-19 -8 -90 -37 -157 -65 -67 -27 -147 -67 -177
-89 -67 -48 -129 -139 -156 -228 -21 -70 -39 -209 -40 -301 l-1 -55 -21 40
c-33 61 -37 184 -9 267 36 109 134 240 248 331 34 28 61 52 59 55 -8 8 -221
-56 -309 -94 -49 -20 -122 -59 -164 -86 l-75 -49 7 43 c9 56 7 54 61 67 28 7
58 24 75 42 23 24 50 35 166 65 192 49 332 72 438 72 89 0 90 0 55 -15z m2706
-39 c243 -98 346 -187 663 -578 9 -11 -51 48 -134 130 -163 163 -293 266 -459
365 -96 57 -180 118 -165 119 3 0 45 -16 95 -36z m4178 -65 c3 -16 9 -80 12
-141 l7 -110 -64 7 c-35 4 -66 9 -68 10 -1 2 4 32 13 67 9 36 16 90 16 121 0
50 3 59 23 67 40 16 54 12 61 -21z m-7940 -143 c18 -7 43 -30 56 -51 31 -51
49 -31 20 24 l-21 42 48 -3 c43 -3 50 -7 76 -45 l30 -41 -41 -49 c-48 -58 -76
-112 -104 -201 -16 -53 -98 -233 -113 -250 -2 -2 -30 14 -62 36 -72 49 -170
151 -179 186 -6 26 2 96 12 96 3 0 24 -16 47 -35 38 -33 87 -47 87 -25 0 6 -7
10 -16 10 -9 0 -31 15 -50 34 -28 28 -34 41 -34 77 0 61 20 79 88 79 48 0 59
-4 93 -35 39 -35 59 -44 59 -26 0 16 -61 71 -102 92 -65 33 -61 67 12 87 49
14 56 14 94 -2z m4949 -492 c282 -118 561 -182 972 -220 99 -9 198 -21 219
-26 53 -13 159 -119 213 -213 40 -69 93 -185 93 -204 0 -6 -21 11 -47 37 -81
80 -183 151 -298 207 -204 100 -350 134 -605 142 -195 6 -298 -3 -458 -43
-260 -64 -440 -171 -657 -389 -156 -157 -185 -195 -205 -268 -10 -35 -23 -63
-31 -65 -8 -1 -41 22 -73 52 l-59 54 7 74 c22 234 139 508 280 656 84 89 270
209 374 243 94 30 128 25 275 -37z m2852 -84 c22 -24 17 -38 -49 -127 -51 -69
-49 -68 -201 -77 -276 -15 -463 -147 -612 -431 -39 -74 -42 -77 -43 -46 -1 93
72 261 157 363 91 109 115 122 424 234 156 56 289 102 295 103 6 1 19 -8 29
-19z m-2140 -251 c171 -21 333 -71 472 -147 79 -43 235 -192 276 -264 24 -42
71 -218 92 -344 l6 -41 -53 -23 c-87 -38 -176 -46 -360 -32 -90 7 -184 12
-210 12 -40 0 -60 8 -142 61 -57 37 -96 68 -96 78 0 9 12 70 26 136 25 120 34
218 21 231 -12 12 -16 1 -53 -132 -20 -71 -38 -137 -41 -146 -7 -23 -19 -23
-51 2 -14 11 -56 30 -94 41 -59 18 -87 21 -186 16 -75 -3 -146 -13 -197 -27
-84 -22 -238 -91 -219 -97 5 -2 71 12 145 31 228 58 382 70 454 35 40 -19 58
-59 47 -101 -7 -30 -13 -33 -68 -44 -139 -29 -254 -96 -384 -224 -144 -144
-292 -370 -240 -370 6 0 10 7 10 15 0 67 187 284 345 401 44 32 114 75 155 94
68 32 83 35 165 35 71 0 100 -4 135 -21 25 -12 77 -32 115 -44 117 -38 286
-132 451 -251 115 -83 114 -80 59 -130 -56 -52 -124 -159 -164 -260 -61 -152
-153 -518 -185 -734 -34 -231 -47 -624 -25 -768 10 -63 9 -75 -7 -104 -21 -40
-86 -85 -163 -114 -74 -28 -238 -30 -326 -5 -132 39 -271 132 -378 253 -68 77
-116 152 -202 313 -100 187 -175 301 -318 482 -295 373 -307 402 -314 757 -7
301 14 483 87 766 l28 110 128 127 c148 145 199 187 304 251 240 145 625 216
955 176z m1095 -9 l95 -1 -35 -30 c-19 -16 -50 -41 -68 -56 l-32 -26 -53 49
c-28 27 -63 56 -77 65 -24 16 -23 16 25 8 28 -4 93 -8 145 -9z m851 0 c53 -29
0 -119 -231 -390 -68 -80 -136 -165 -152 -190 -16 -25 -34 -45 -40 -45 -7 0
-37 -31 -68 -69 -31 -38 -65 -73 -76 -77 -28 -11 -123 -10 -165 1 -69 19 -69
25 9 182 124 249 255 428 371 505 66 45 193 81 314 92 10 0 27 -4 38 -9z
m-1076 -140 c63 -17 113 -21 238 -22 86 0 155 -3 152 -6 -10 -11 -203 -36
-262 -34 -34 1 -85 11 -115 22 -55 21 -149 75 -113 66 11 -3 56 -15 100 -26z
m1466 -253 c71 -110 133 -245 161 -347 29 -110 32 -324 6 -440 -10 -41 -27
-154 -38 -250 -81 -686 -183 -987 -412 -1213 -106 -106 -179 -141 -293 -141
-141 0 -260 53 -310 138 -16 27 -43 114 -71 223 -50 203 -91 296 -158 362
l-44 43 20 47 c28 62 35 191 15 249 -14 39 -13 44 5 68 l20 25 25 -53 c42 -90
70 -188 107 -376 44 -217 74 -315 126 -402 40 -68 130 -165 152 -165 21 0 64
100 92 214 14 58 46 219 71 356 25 138 57 309 71 380 35 177 38 313 6 376 -22
45 -54 69 -92 69 -28 0 -25 8 18 64 23 32 57 60 91 78 92 48 183 34 316 -49
l70 -44 -70 69 c-84 81 -142 112 -211 112 -54 0 -99 -23 -184 -95 -71 -60 -85
-63 -120 -30 -17 16 -30 31 -30 34 0 3 16 27 35 54 35 47 35 47 68 34 39 -17
66 -9 96 29 31 39 28 78 -10 104 -26 19 -28 24 -17 40 7 10 100 138 207 284
223 305 195 290 282 153z m-995 -440 c4 -4 -6 -26 -23 -49 -32 -45 -82 -67
-186 -82 l-44 -7 9 63 c13 96 4 90 127 86 60 -1 113 -6 117 -11z m-436 -213
l20 -113 -24 -36 c-23 -33 -24 -41 -19 -132 l6 -97 -76 65 c-65 54 -76 69 -77
95 0 58 -183 210 -415 347 -26 15 -45 30 -43 33 3 2 36 0 74 -6 108 -15 303
-24 376 -16 44 5 79 15 100 30 l33 22 12 -39 c7 -22 22 -90 33 -153z m398 45
c23 -13 109 -120 119 -147 3 -7 33 -25 67 -41 33 -15 86 -49 115 -74 54 -46
100 -67 151 -67 39 0 46 -10 73 -95 48 -155 44 -249 -15 -378 -37 -81 -57 -97
-118 -97 -97 0 -251 109 -330 233 -40 63 -57 73 -220 129 -63 22 -129 48 -146
59 -49 30 -87 129 -49 129 8 0 35 -7 61 -16 62 -21 69 -9 10 17 -64 28 -86 52
-86 92 0 30 5 36 41 53 l41 18 51 -27 c28 -15 52 -25 54 -24 1 2 -11 20 -28
40 -20 24 -41 38 -65 43 -51 9 -66 45 -34 79 49 53 147 42 199 -23 30 -36 31
-36 31 -11 0 31 -38 75 -81 93 -33 14 -29 22 18 35 35 9 112 -2 141 -20z
m-3233 -249 c78 -156 90 -199 89 -310 -1 -52 -11 -138 -22 -190 -23 -114 -63
-262 -68 -257 -2 2 3 41 11 88 24 141 38 319 31 393 -7 83 -28 161 -84 306
-22 58 -43 114 -47 125 -14 39 39 -51 90 -155z m2645 -87 c70 -70 233 -209
331 -280 83 -61 115 -105 134 -183 13 -52 14 -73 5 -89 -14 -28 -28 -27 -36 3
-3 14 -14 32 -24 41 -17 16 -18 15 -8 -27 16 -74 -10 -178 -45 -178 -8 0 -23
24 -36 54 -25 60 -60 101 -48 56 4 -14 10 -51 13 -82 8 -67 -2 -84 -53 -94
-29 -5 -39 -2 -65 22 -17 16 -39 43 -49 59 -31 49 -22 13 12 -49 17 -31 29
-60 26 -63 -12 -11 -96 9 -122 29 -15 11 -42 55 -61 96 -56 122 -69 135 -187
178 -147 53 -140 45 -117 141 24 103 61 200 110 291 91 168 117 177 220 75z
m775 -618 c103 -142 162 -205 193 -205 15 0 17 -7 15 -37 -15 -162 -42 -273
-68 -273 -34 0 -78 101 -149 345 -26 88 -60 195 -75 237 -16 43 -26 76 -22 73
4 -2 52 -65 106 -140z m-1034 25 c16 -30 28 -64 29 -76 0 -25 -60 -119 -118
-187 -49 -56 -53 -89 -21 -162 16 -37 19 -57 14 -98 -18 -135 -102 -497 -115
-497 -9 0 -5 314 5 475 14 211 51 422 91 526 38 97 73 103 115 19z m-1701
-261 c180 -227 212 -275 315 -469 135 -256 229 -379 365 -482 211 -160 461
-201 665 -108 144 64 201 161 245 416 11 66 32 181 47 257 24 132 27 138 47
132 64 -20 143 -36 162 -32 20 3 22 -2 28 -56 10 -97 7 -499 -5 -584 -24 -176
-60 -244 -226 -428 -206 -228 -299 -357 -385 -530 -118 -235 -140 -407 -99
-745 11 -85 21 -193 23 -240 l3 -84 -33 -23 c-49 -32 -133 -62 -210 -73 -87
-13 -338 -12 -427 0 -217 31 -483 120 -720 240 -194 98 -317 176 -526 332
-201 151 -233 164 -369 155 -47 -4 -130 -16 -184 -27 -55 -11 -102 -18 -105
-15 -3 4 254 524 571 1158 317 634 598 1202 625 1264 26 62 50 112 53 112 3 0
66 -76 140 -170z m2425 98 c22 -19 34 -54 80 -232 60 -239 71 -270 120 -364
106 -201 283 -263 522 -182 60 20 58 22 68 -49 3 -25 17 -64 30 -86 14 -23 47
-127 75 -230 113 -421 226 -696 566 -1376 90 -181 164 -330 164 -334 0 -3 -26
17 -57 44 -197 168 -398 243 -654 243 -205 0 -357 -37 -676 -167 -100 -41
-193 -74 -206 -74 -148 0 -253 789 -288 2165 -14 544 -15 535 72 602 85 65
141 77 184 40z m-386 -236 c-19 -16 -47 -47 -63 -69 -20 -29 -32 -38 -46 -35
-17 4 -12 14 37 69 42 47 63 64 82 64 25 0 25 0 -10 -29z m-41 -1618 c65 -20
138 -82 175 -150 37 -68 54 -149 77 -369 27 -253 57 -360 126 -451 42 -56 100
-47 327 51 60 25 112 46 116 46 11 0 75 -289 67 -298 -4 -4 -79 8 -167 26
-288 60 -521 63 -626 8 -69 -36 -89 -54 -147 -132 -41 -55 -64 -75 -113 -100
-76 -38 -183 -67 -339 -94 -155 -27 -578 -39 -734 -21 -190 23 -347 62 -366
92 -11 18 123 -4 181 -29 45 -20 81 -27 144 -30 l84 -4 -7 45 -7 45 68 7 c156
15 304 66 353 122 27 30 30 41 30 96 -1 34 -7 106 -14 160 l-12 97 76 98 c90
116 147 211 229 384 81 169 144 260 245 356 l85 80 48 -9 c26 -5 72 -16 101
-26z m-2932 -642 c22 -11 110 -73 196 -138 86 -65 207 -149 268 -187 62 -38
114 -75 116 -81 3 -7 -5 -38 -17 -71 -28 -75 -100 -147 -194 -194 -59 -30 -80
-35 -136 -35 -60 0 -71 3 -106 31 -21 17 -69 76 -106 130 -98 143 -125 174
-166 192 -26 11 -91 17 -246 22 -115 4 -218 10 -228 14 -25 12 -31 48 -13 91
21 49 101 162 129 180 19 12 202 55 292 69 64 9 172 -2 211 -23z m4890 -339
c51 -37 146 -141 141 -155 -7 -21 -77 -71 -86 -61 -8 8 -111 231 -111 240 0
10 20 2 56 -24z m-4208 -369 c34 -3 62 -9 62 -12 0 -4 -7 -17 -16 -30 -15 -20
-22 -22 -61 -16 -66 10 -155 34 -170 47 -24 19 7 30 67 23 30 -3 83 -9 118
-12z m425 -23 c104 -8 133 -13 157 -30 37 -26 40 -71 9 -133 -21 -39 -232
-362 -300 -455 -58 -82 -173 -99 -210 -31 -15 28 4 72 54 127 21 24 36 46 33
49 -10 11 -89 -52 -122 -97 -34 -46 -43 -83 -23 -96 29 -17 -65 -33 -106 -18
-25 10 -45 59 -45 113 0 44 5 56 36 91 23 26 31 40 22 40 -44 0 -107 -92 -108
-157 0 -55 -57 -84 -94 -47 -25 24 -21 106 8 162 13 26 27 63 31 82 l7 35 -22
-20 c-28 -25 -49 -65 -70 -135 l-17 -55 -10 45 c-25 118 50 212 227 284 72 30
126 81 201 191 l44 65 85 -1 c47 0 143 -4 213 -9z m3703 -237 c79 -107 105
-128 219 -182 124 -59 195 -115 225 -175 27 -57 23 -76 -10 -44 -25 24 -60 43
-60 32 0 -4 13 -22 30 -40 52 -60 52 -108 -1 -169 -45 -51 -55 -46 -54 26 l0
61 -68 64 c-37 35 -72 64 -78 64 -6 0 5 -21 24 -47 19 -27 45 -68 57 -92 21
-42 21 -46 6 -78 -26 -54 -55 -61 -137 -33 -49 17 -68 28 -64 38 18 47 17 64
-6 88 -21 23 -95 51 -106 40 -3 -2 14 -21 36 -41 50 -45 52 -74 11 -108 -70
-59 -141 -44 -243 52 -40 37 -102 88 -139 114 -132 93 -178 177 -181 332 l-2
90 60 7 c33 5 134 24 225 42 91 19 173 34 182 35 11 1 39 -29 74 -76z"/>
<path d="M7485 7834 c-184 -18 -382 -77 -415 -124 -19 -27 -19 -27 6 -78 14
-29 43 -66 65 -83 22 -17 47 -45 55 -63 9 -17 25 -41 36 -52 l19 -22 52 20
c57 22 120 21 198 -2 52 -15 101 -8 93 15 -3 8 6 29 20 48 35 46 58 103 65
164 l6 53 45 -39 c44 -38 45 -40 45 -99 -1 -58 -3 -63 -40 -97 -25 -23 -33
-34 -20 -30 62 20 71 18 94 -19 27 -42 44 -45 67 -11 14 21 14 32 4 77 -17 69
-72 194 -103 233 -14 17 -57 48 -95 68 -71 37 -122 48 -197 41z m-75 -78 c0
-2 -7 -21 -16 -42 -16 -38 -16 -159 0 -195 6 -14 -3 -18 -60 -24 l-66 -7 -45
44 c-53 51 -63 67 -68 112 -4 32 -2 35 48 56 74 33 207 69 207 56z m144 -59
c11 -41 6 -66 -18 -94 -20 -24 -26 -25 -40 -14 -28 23 -16 111 17 133 16 10
34 -1 41 -25z m46 -152 c-45 -73 -112 -96 -161 -56 -20 16 -22 22 -11 33 11
11 16 10 26 -4 7 -10 22 -18 32 -18 28 0 79 34 106 70 29 40 36 21 8 -25z"/>
<path d="M8779 7770 c-47 -25 -86 -71 -118 -140 -20 -45 -25 -70 -24 -138 0
-45 3 -85 7 -89 3 -4 13 3 22 15 19 28 45 28 111 0 39 -16 58 -19 74 -12 19 9
17 12 -32 39 -39 21 -67 29 -100 28 l-47 -1 15 62 c17 72 60 153 96 180 32 23
43 17 27 -15 -16 -29 -16 -135 -1 -182 14 -40 72 -97 100 -97 44 0 161 151
161 207 0 15 14 37 36 57 l37 34 -65 36 c-63 35 -68 36 -164 36 -78 -1 -107
-5 -135 -20z m254 -60 c3 -11 3 -20 1 -20 -2 0 -8 9 -14 20 -6 11 -7 20 -2 20
6 0 12 -9 15 -20z m-113 -35 c18 -21 15 -84 -5 -104 -15 -15 -17 -15 -31 3
-16 23 -18 69 -4 97 13 23 23 24 40 4z m51 -134 c-12 -22 -21 -47 -21 -55 0
-7 -7 -17 -16 -20 -25 -10 -74 -7 -74 4 0 6 6 10 14 10 21 0 74 48 92 82 9 16
18 28 20 25 3 -3 -4 -23 -15 -46z"/>
<path d="M8195 7330 c-9 -14 79 -105 121 -125 28 -13 34 -22 34 -46 0 -16 -9
-47 -20 -69 -32 -63 -151 -143 -231 -155 -19 -3 -44 -11 -54 -19 -17 -12 -18
-17 -7 -40 15 -33 32 -40 76 -32 40 8 86 41 196 144 43 39 83 72 87 72 5 0 14
-15 21 -32 12 -32 44 -72 91 -112 13 -12 47 -23 84 -28 109 -16 102 -18 102
27 0 38 -1 40 -30 38 -16 -1 -46 -5 -66 -9 -32 -5 -41 -2 -76 30 -58 52 -92
106 -109 171 l-15 57 55 58 c31 32 56 62 56 67 0 4 -48 5 -107 2 -60 -3 -121
-2 -138 2 -39 12 -62 11 -70 -1z"/>
<path d="M7334 7181 c-102 -12 -219 -49 -204 -65 3 -2 32 5 65 16 97 33 286
44 501 30 155 -10 335 -34 434 -58 23 -5 24 -5 7 9 -20 17 -140 41 -282 57
-124 14 -435 21 -521 11z"/>
<path d="M7538 7009 c-69 -10 -132 -35 -123 -49 4 -6 16 -5 35 5 50 26 168 37
403 36 139 0 227 3 227 9 0 12 -460 11 -542 -1z"/>
<path d="M3512 8965 c-88 -19 -143 -48 -190 -99 -55 -60 -69 -122 -52 -231 9
-58 10 -87 2 -101 -25 -48 27 -56 81 -13 34 26 34 39 1 39 -19 0 -28 8 -41 38
-21 50 -21 138 1 184 14 30 81 88 101 88 3 0 -3 -19 -12 -42 -11 -26 -18 -70
-18 -109 0 -55 4 -72 28 -107 33 -50 33 -50 5 -55 -13 -2 20 -5 72 -6 193 -2
328 66 361 181 17 58 17 129 0 160 -10 20 -11 30 -1 48 6 12 9 25 5 28 -14 14
-279 11 -343 -3z m113 -85 c22 -24 25 -81 6 -104 -35 -42 -91 0 -91 67 0 24 3
47 7 50 14 14 61 6 78 -13z m186 -17 c6 -16 9 -57 7 -92 -4 -62 -6 -66 -52
-108 -29 -25 -58 -43 -72 -43 -29 0 -29 -3 2 95 24 76 26 113 7 161 -4 11 6
14 46 14 47 0 52 -2 62 -27z m-320 -239 c30 -32 17 -42 -26 -21 -33 16 -35 20
-35 64 0 27 5 66 12 88 l12 40 7 -73 c5 -56 12 -79 30 -98z m148 54 c-17 -34
-40 -58 -55 -58 -7 0 -26 11 -41 26 l-28 25 30 -6 c20 -3 42 1 65 14 19 10 36
19 38 20 1 0 -3 -9 -9 -21z"/>
<path d="M2235 8829 c4 -19 6 -75 5 -126 -2 -133 23 -173 120 -188 67 -11 173
-45 192 -62 49 -43 68 39 44 182 -15 93 -41 160 -68 182 -22 18 -88 31 -197
38 l-104 7 8 -33z m135 -44 c0 -2 -9 -19 -20 -37 -15 -25 -20 -51 -20 -103 -1
-63 -2 -68 -15 -51 -20 26 -38 122 -30 162 6 32 8 34 45 34 22 0 40 -2 40 -5z
m110 -10 c11 -13 10 -23 0 -55 -15 -44 -24 -49 -40 -21 -14 26 -13 64 2 79 16
16 23 15 38 -3z m-81 -130 l0 -30 -14 25 c-16 27 -19 62 -8 74 9 9 21 -28 22
-69z m159 -68 c9 -57 8 -59 -15 -68 -36 -13 -36 -13 -29 39 4 26 10 74 13 107
l7 60 7 -40 c4 -22 12 -66 17 -98z m-121 -25 c-19 -4 -57 15 -57 28 0 5 16 2
36 -8 23 -11 31 -18 21 -20z"/>
<path d="M4955 8564 c-143 -32 -314 -110 -682 -312 -241 -133 -379 -203 -480
-243 -154 -61 -928 -246 -1133 -271 -114 -13 -191 -31 -192 -43 0 -5 53 -32
118 -58 66 -26 125 -50 132 -54 34 -15 152 10 334 71 202 68 237 74 408 67 59
-2 82 4 410 108 239 76 479 139 708 186 377 77 375 76 707 85 272 6 317 9 365
27 69 25 95 58 95 121 0 62 -51 171 -94 201 -134 96 -507 157 -696 115z"/>
<path d="M2773 8264 c-21 -9 -15 -26 24 -66 l37 -38 -34 -30 c-67 -58 -101
-68 -170 -49 -8 2 -15 -3 -15 -11 0 -22 123 -17 202 8 l63 20 62 -26 c57 -24
75 -27 193 -27 112 0 138 3 186 23 76 30 98 47 82 63 -10 10 -22 6 -57 -19
-60 -43 -90 -53 -164 -53 -52 0 -77 7 -151 40 -48 23 -93 41 -99 41 -28 0 -8
21 37 41 53 22 89 54 77 67 -4 4 -44 7 -89 8 -45 0 -102 4 -127 7 -25 4 -51 4
-57 1z"/>
<path d="M4268 4282 c-47 -64 -141 -196 -209 -292 -68 -96 -160 -219 -204
-274 -166 -205 -227 -293 -285 -411 -67 -137 -93 -211 -191 -554 -77 -270
-118 -383 -179 -499 -55 -104 -148 -232 -186 -254 -17 -10 -74 -27 -127 -38
-53 -11 -107 -24 -120 -29 -31 -12 -57 -84 -57 -157 0 -63 -15 -136 -38 -184
-16 -32 -20 -34 -59 -32 -41 3 -42 3 -52 -35 -5 -21 -17 -80 -26 -132 -9 -52
-22 -110 -30 -128 -13 -31 -13 -34 8 -48 72 -47 403 -109 840 -156 79 -9 105
-15 97 -23 -18 -18 -285 -10 -465 14 -227 29 -382 68 -425 105 -13 11 -45 -12
-215 -156 -187 -157 -209 -173 -340 -238 -154 -77 -165 -85 -218 -155 -30 -38
-37 -56 -37 -92 0 -126 143 -189 425 -187 217 1 401 35 643 117 l132 45 20
-40 20 -39 68 0 c147 0 325 45 392 98 82 66 220 282 220 344 0 14 -13 42 -30
64 -16 21 -30 48 -30 60 0 24 24 48 58 59 48 14 55 42 47 195 -5 99 -11 140
-19 140 -19 0 -723 88 -762 96 -19 3 -33 8 -32 10 2 1 123 -3 268 -11 146 -8
309 -15 362 -15 l97 0 21 73 c48 168 144 450 188 552 79 183 222 406 335 522
l51 53 -12 102 c-6 57 -17 144 -23 193 -7 50 -12 180 -12 290 -1 221 8 288 69
528 56 224 82 353 98 496 9 74 14 136 13 138 -2 1 -42 -50 -89 -115z"/>
</g>
</svg>